# xmcd CD database file
#
# Track frame offsets:
#	150
#	18919
#	34721
#	51507
#	65702
#	77612
#	97609
#	110399
#	126215
#	140141
#	154715
#	170019
#	184880
#	196161
#	207095
#	225217
#	234283
#	250817
#	262616
#	274832
#	289195
#	301432
#	316243
#
# Disc length: 4418 seconds
#
# Revision: 3
# Processed by: cddbd v1.5.1PL0 Copyright (c) Steve Scherf et al.
# Submitted via: CDex 1.51
#
DISCID=34114017
DTITLE=0176-Eigene CD - Country Nr. 1 - Country Nr. 1
DYEAR=1999
DGENRE=Country
TTITLE0=Island in the stream - Dolly Parton and Kenny Rogers
TTITLE1=I know where he lives - Hal Ketchum
TTITLE2=The thunder rolls - Garth Brooks
TTITLE3=Take me home country roads - John Denver
TTITLE4=Jolene - Dolly Parton
TTITLE5=Everytime I roll the dice - Delbert McClinton
TTITLE6=Under the hood - Al Andersen
TTITLE7=Nashville Mirrors - Bill Anderson
TTITLE8=The hand that rocks the cradle - Glen Campbell
TTITLE9=Heartbreak express - Dolly Parton
TTITLE10=I like it, I love it - Tim McGraw
TTITLE11=Harper Valley P. T. A. - Jeannie Riley
TTITLE12=Rub it in - Billie Craddock
TTITLE13=Yeah Buddy - Jeff Carson
TTITLE14=Circus leaving town - Philip Claypool
TTITLE15=My rifle my pony and me - Dean Martin
TTITLE16=Ballad of the alamo - Marty Robbins
TTITLE17=Callin' Baton Rouge - Garth Brooks
TTITLE18=Do you wanna make something of it - Jo De Messina
TTITLE19=Some girls do - Sawyer Brown
TTITLE20=Out of the blue - Bob Woodruff
TTITLE21=Sweet summer lovin' - Dolly Parton
TTITLE22=As long as I'm rocking with you - John Conlee
EXTD=YEAR: 1999
EXTT0=
EXTT1=
EXTT2=
EXTT3=
EXTT4=
EXTT5=
EXTT6=
EXTT7=
EXTT8=
EXTT9=
EXTT10=
EXTT11=
EXTT12=
EXTT13=
EXTT14=
EXTT15=
EXTT16=
EXTT17=
EXTT18=
EXTT19=
EXTT20=
EXTT21=
EXTT22=
PLAYORDER=
